<svg width="512" height="512" viewBox="0 0 512 512" fill="none" xmlns="http://www.w3.org/2000/svg">
<path d="M276.271 203.395C279.977 197.901 287.435 196.451 292.93 200.157C346.58 236.344 360.736 309.173 324.549 362.823C288.361 416.472 215.534 430.628 161.884 394.441C156.389 390.735 154.94 383.276 158.646 377.782C162.352 372.288 169.81 370.838 175.304 374.543C217.965 403.319 275.876 392.063 304.651 349.402C333.427 306.741 322.17 248.83 279.509 220.054C274.014 216.348 272.565 208.889 276.271 203.395ZM120.984 295.459C123.158 295.46 125.103 296.813 125.858 298.851L128.742 306.64V306.642C132.685 317.304 134.201 321.087 136.932 323.814C139.667 326.545 143.455 328.069 154.108 332.008H154.11L161.899 334.893C163.938 335.648 165.292 337.593 165.292 339.767C165.291 341.941 163.938 343.884 161.899 344.639L154.11 347.523H154.108C143.447 351.466 139.664 352.982 136.938 355.712C134.548 358.106 133.081 361.304 130.112 369.205L128.742 372.889V372.891L125.858 380.68C125.103 382.719 123.158 384.073 120.984 384.073C118.811 384.072 116.867 382.718 116.112 380.68L113.228 372.891V372.889L111.857 369.203C108.889 361.301 107.427 358.108 105.035 355.716C102.301 352.983 98.5201 351.465 87.8613 347.523H87.8594L80.0703 344.639L79.6973 344.485C77.8687 343.642 76.6792 341.805 76.6787 339.767C76.6787 337.593 78.0319 335.648 80.0703 334.893L87.8594 332.008H87.8613L91.5479 330.638C99.4496 327.67 102.643 326.208 105.035 323.816C107.769 321.082 109.286 317.301 113.228 306.642V306.64L116.112 298.851C116.867 296.813 118.811 295.46 120.984 295.459ZM189.775 149.177C225.963 95.5275 298.79 81.3719 352.44 117.559C357.935 121.265 359.385 128.724 355.679 134.218C351.973 139.712 344.515 141.162 339.021 137.457C296.359 108.681 238.448 119.937 209.673 162.598C180.897 205.259 192.154 263.17 234.815 291.946C240.31 295.652 241.76 303.111 238.054 308.605C234.348 314.099 226.889 315.549 221.395 311.843C167.744 275.656 153.588 202.827 189.775 149.177ZM390.036 128.514C392.21 128.514 394.155 129.868 394.91 131.907L397.794 139.696V139.698C401.737 150.359 403.253 154.142 405.983 156.869C408.719 159.6 412.506 161.124 423.16 165.064H423.162L430.951 167.948C432.99 168.703 434.344 170.648 434.344 172.822C434.343 174.995 432.989 176.939 430.951 177.694L423.162 180.579H423.16C412.499 184.521 408.716 186.037 405.989 188.767C403.599 191.161 402.133 194.36 399.164 202.26L397.794 205.945V205.947L394.91 213.736C394.155 215.774 392.21 217.127 390.036 217.127C387.863 217.127 385.919 215.774 385.164 213.736L382.279 205.947V205.945L380.909 202.258C377.941 194.356 376.479 191.163 374.087 188.771C371.353 186.037 367.572 184.52 356.913 180.579H356.911L349.122 177.694L348.749 177.54C346.92 176.696 345.731 174.86 345.73 172.822C345.731 170.648 347.084 168.703 349.122 167.948L356.911 165.064H356.913L360.6 163.694C368.501 160.725 371.695 159.263 374.087 156.871C376.821 154.137 378.338 150.356 382.279 139.698V139.696L385.164 131.907C385.919 129.868 387.863 128.515 390.036 128.514Z" fill="white"/>
</svg>
